<?xml version="1.0" encoding="UTF-8" standalone="no"?>
<svg
   xmlns:dc="http://purl.org/dc/elements/1.1/"
   xmlns:cc="http://creativecommons.org/ns#"
   xmlns:rdf="http://www.w3.org/1999/02/22-rdf-syntax-ns#"
   xmlns:svg="http://www.w3.org/2000/svg"
   xmlns="http://www.w3.org/2000/svg"
   xmlns:sodipodi="http://sodipodi.sourceforge.net/DTD/sodipodi-0.dtd"
   xmlns:inkscape="http://www.inkscape.org/namespaces/inkscape"
   sodipodi:docname="mandala_arousal_petal.svg"
   inkscape:version="1.0beta2 (2b71d25, 2019-12-03)"
   id="svg16"
   version="1.1"
   viewBox="0 0 210 297"
   height="297mm"
   width="210mm">
  <defs
     id="defs10" />
  <sodipodi:namedview
     inkscape:window-maximized="0"
     inkscape:window-y="23"
     inkscape:window-x="0"
     inkscape:window-height="820"
     inkscape:window-width="1440"
     showgrid="false"
     inkscape:document-rotation="0"
     inkscape:current-layer="layer2"
     inkscape:document-units="mm"
     inkscape:cy="99.657745"
     inkscape:cx="68.894481"
     inkscape:zoom="0.65153519"
     inkscape:pageshadow="2"
     inkscape:pageopacity="0.0"
     borderopacity="1.0"
     bordercolor="#666666"
     pagecolor="#ffffff"
     id="base" />
  <metadata
     id="metadata13">
    <rdf:RDF>
      <cc:Work
         rdf:about="">
        <dc:format>image/svg+xml</dc:format>
        <dc:type
           rdf:resource="http://purl.org/dc/dcmitype/StillImage" />
        <dc:title />
      </cc:Work>
    </rdf:RDF>
  </metadata>
  <g
     id="layer1"
     inkscape:groupmode="layer"
     inkscape:label="Layer 1" />
  <g
     inkscape:label="Petal1"
     id="layer2"
     inkscape:groupmode="layer">
    <g
       transform="matrix(-0.99466954,0.10311401,0.10311401,0.99466954,-13.735327,58.713953)"
       id="petal1">
      <path
         style="fill:#a0a0a0;stroke:none;stroke-width:1.53484"
         d="m 0.0,0.0 m 58.07559,-11.59569 c 3.42001,-15.77482 -10.94963,11.35511 7.24917,-8.07606 q -10.78396,-21.72154 -48.50227,2.49367 c 45.71136,8.92694 26.42101,16.71698 57.4949,18.10601 q -4.68883,-9.25443 -13.96514,-13.68064 9.49527,-16.35191 -8.02625,21.30619 5.59197,-1.26417 8.38459,-34.07315 2.48241,23.18939 21.75603,22.51388 2.34569,-30.00779 15.56511,-21.56323 -6.08355,-4.99465 -28.08991,-5.33711 c 0.74504,10.34165 32.73886,10.60747 15.53227,-22.24757 6.17179,28.61703 -26.46242,11.34368 -32.63122,16.20073 q 20.29111,-15.40651 36.63998,16.3252 7.43239,-14.05578 -7.31521,-4.69776 c 67.44589,32.50197 -42.90655,40.99878 -9.82305,40.38792 30.26407,-29.04713 27.14746,-20.97177 39.18021,-49.48136 -21.83438,38.47354 20.7555,44.54398 -41.34223,43.56706 q 39.22887,-36.67644 59.9237,12.17031 c 35.30474,-20.19719 -61.25637,-43.81283 -108.8639,-43.64527 q 69.68374,69.55023 36.83322,9.73118 l 31.88572,-2.12215 z"
         id="path853"
         inkscape:connector-curvature="0"
         transform="scale(0.26458333)"
         sodipodi:nodetypes="cscscssssc" />
    </g>
  </g>
</svg>
